<mxfile host="app.diagrams.net" modified="2024-01-17T01:34:12.004Z" agent="Mozilla/5.0 (Windows NT 10.0; Win64; x64; rv:121.0) Gecko/20100101 Firefox/121.0" version="22.1.20" etag="A9PVK9gZiHsR8VLJR19y" type="github">
  <diagram name="Page-1" id="N659uaNJfiBq5TaTjxlK">
    <mxGraphModel>
      <root>
        <mxCell id="0" />
        <mxCell id="1" parent="0" />
      </root>
    </mxGraphModel>
  </diagram>
</mxfile>
